<?xml version="1.0" standalone="no"?>
<!DOCTYPE svg PUBLIC "-//W3C//DTD SVG 20010904//EN"
 "http://www.w3.org/TR/2001/REC-SVG-20010904/DTD/svg10.dtd">
<svg version="1.0" xmlns="http://www.w3.org/2000/svg"
 width="225.000000pt" height="225.000000pt" viewBox="0 0 225.000000 225.000000"
 preserveAspectRatio="xMidYMid meet">
<metadata>
Created by potrace 1.16, written by Peter Selinger 2001-2019
</metadata>
<g transform="translate(0.000000,225.000000) scale(0.100000,-0.100000)"
fill="#000000" stroke="none">
<path d="M1103 1970 c-18 -7 -20 -15 -16 -47 l5 -38 -104 0 -103 0 3 33 c2 22
-1 32 -10 32 -26 0 -39 -17 -33 -41 5 -23 2 -25 -87 -47 -92 -22 -93 -22 -109
-3 -22 26 -43 8 -27 -23 8 -15 8 -21 -3 -25 -8 -2 -41 -31 -75 -63 -35 -34
-67 -56 -75 -53 -8 2 -21 1 -29 -5 -13 -8 -12 -11 4 -23 18 -13 18 -16 -7 -78
-21 -50 -31 -64 -47 -63 -15 0 -20 -6 -20 -23 0 -15 6 -23 16 -23 13 0 15 -7
10 -31 -3 -17 -6 -35 -6 -39 0 -5 -44 -11 -97 -15 -107 -8 -133 -19 -163 -68
-27 -44 -26 -112 5 -253 38 -174 51 -189 181 -202 l69 -7 3 -69 3 -69 83 -81
c94 -93 192 -165 367 -271 158 -96 197 -109 307 -102 73 4 96 10 170 47 111
55 335 206 414 278 116 106 122 116 128 196 l5 71 69 7 c135 13 149 31 190
235 31 157 26 203 -29 252 -30 26 -42 29 -134 35 -64 5 -104 12 -106 19 -16
54 -15 67 5 67 14 0 20 7 20 24 0 19 -4 22 -23 19 -20 -4 -26 4 -54 71 l-31
76 22 16 c21 15 21 15 2 29 -17 13 -22 13 -36 0 -15 -13 -19 -12 -38 15 -12
16 -43 43 -69 61 -27 18 -50 34 -52 36 -3 2 6 14 18 27 l22 23 -28 6 c-21 4
-32 0 -44 -15 -15 -20 -17 -20 -85 -4 -38 9 -80 17 -94 18 -20 2 -24 8 -22 27
3 21 -11 40 -30 41 -4 0 -8 -15 -10 -32 l-3 -33 -99 0 -98 0 5 48 c6 49 5 51
-30 37z m-9 -165 c3 -8 12 -15 21 -15 8 0 15 7 15 15 0 12 18 15 99 15 90 0
99 -2 104 -20 7 -25 23 -26 30 -1 3 13 11 18 23 16 123 -25 126 -26 120 -51
-8 -31 19 -44 38 -19 15 21 37 12 97 -42 29 -26 38 -41 33 -55 -4 -14 0 -21
14 -25 12 -3 29 -24 41 -53 25 -58 25 -60 6 -60 -23 0 -18 -20 9 -30 33 -12
36 -36 42 -397 l6 -312 -25 -44 c-38 -64 -203 -193 -405 -315 -59 -36 -106
-56 -159 -68 -134 -30 -189 -12 -408 133 -156 103 -268 193 -305 245 l-30 41
0 295 c0 323 9 422 40 422 27 0 35 19 11 28 -20 7 -20 8 4 57 13 28 24 46 24
41 1 -5 8 -3 16 4 11 9 12 16 5 25 -7 9 5 27 46 65 41 39 58 49 64 40 11 -18
40 -5 40 18 0 19 35 35 103 48 30 5 37 3 37 -10 0 -22 17 -20 30 4 10 18 21
20 109 20 79 0 100 -3 105 -15z m-687 -532 c-4 -38 -7 -128 -7 -200 l0 -133
-60 0 c-110 0 -120 11 -155 178 -20 99 -19 133 8 173 27 40 48 47 146 48 l74
1 -6 -67z m1596 60 c31 -5 41 -13 58 -44 23 -46 24 -84 4 -181 -32 -153 -47
-168 -160 -168 l-65 0 0 200 0 200 63 0 c34 0 79 -3 100 -7z"/>
<path d="M549 1184 c-5 -58 5 -122 24 -141 20 -22 26 -23 214 -23 161 0 198 3
218 16 25 16 45 68 45 117 l0 27 -219 0 c-120 0 -233 3 -250 6 -17 4 -31 3
-32 -2z m193 -49 c15 -19 29 -25 59 -25 30 0 46 6 63 25 20 21 32 25 85 25 58
0 61 -1 61 -24 0 -14 -5 -28 -10 -31 -6 -4 -8 -10 -5 -15 15 -24 -44 -39 -181
-46 -147 -7 -199 1 -226 33 -12 15 -11 15 9 5 24 -13 360 -17 380 -4 6 4 -70
6 -168 4 -197 -4 -222 2 -231 52 l-5 26 74 0 c68 0 77 -2 95 -25z"/>
<path d="M1430 1180 l-225 -5 2 -40 c6 -109 24 -119 238 -123 169 -4 227 5
245 37 5 11 11 45 12 78 3 56 2 58 -22 58 -14 1 -126 -1 -250 -5z m-44 -45
c17 -19 33 -25 63 -25 30 0 44 6 59 25 18 23 27 25 96 25 85 0 96 -11 51 -55
-24 -25 -27 -25 -190 -25 -186 0 -225 10 -225 55 0 24 3 25 61 25 53 0 65 -4
85 -25z"/>
<path d="M1610 824 c-96 -30 -456 -106 -690 -145 -135 -22 -246 -42 -247 -43
-1 -1 55 -8 125 -15 70 -7 233 -28 362 -47 331 -49 337 -49 357 -33 9 8 41 66
71 129 30 63 63 127 74 143 22 31 16 33 -52 11z m-182 -116 c-2 -24 -9 -34
-28 -40 -21 -7 -21 -7 6 -3 17 2 55 7 84 11 l52 7 -12 -24 c-7 -13 -22 -37
-33 -53 l-20 -29 -109 7 c-106 6 -388 40 -438 52 -16 4 32 16 140 35 91 15
203 37 250 48 115 26 112 26 108 -11z"/>
</g>
</svg>
